<?xml version="1.0" encoding="utf-8"?>
<!-- Generator: Adobe Illustrator 14.0.0, SVG Export Plug-In . SVG Version: 6.00 Build 43363)  -->
<!DOCTYPE svg PUBLIC "-//W3C//DTD SVG 1.0//EN" "http://www.w3.org/TR/2001/REC-SVG-20010904/DTD/svg10.dtd">
<svg version="1.0" id="Layer_1" xmlns="http://www.w3.org/2000/svg" xmlns:xlink="http://www.w3.org/1999/xlink" x="0px" y="0px"
	 width="100px" height="93.744px" viewBox="0 0 100 93.744" enable-background="new 0 0 100 93.744" xml:space="preserve">
<path d="M70.281,8.827c-3.914,0-6.928,3.128-6.928,6.927c0,3.912,3.014,7.04,6.928,7.04c3.797,0,6.927-3.128,6.927-7.04
	C77.208,11.955,74.078,8.827,70.281,8.827z"/>
<path d="M89.611,54.303c1.449-3.24,1.117-9.833-0.337-16.537c0.11,0.223,0.671,1.788,0.783,1.899c2.347,1.9,5.026,1.005,6.255-2.347
	c-2.567-5.698-5.138-11.396-7.708-17.095c-2.124-0.335-4.136,0.335-6.259,2.011c1.008,2.347,1.902,4.693,2.796,7.039l-3.688-4.469
	l-6.256-1.899l-4.022,1.341c-0.338,0.335-0.673,0.782-0.894,1.117c-3.018,4.47-4.694,9.163-5.59,13.967
	c-4.021,2.57-7.821,4.916-11.729,7.486c-0.896,0.56-1.79,1.118-2.572,1.677l1.455,4.135l1.117-0.336l0.894-0.336l12.401,21.9
	L61.9,91.844l7.707,1.9l0.674-2.123l1.898-5.586l4.805,7.484l2.794-0.557l-6.257-12.068l2.569-11.174l5.251-5.697l13.52,29.496
	L100,90.17L89.611,54.303z M70.281,61.899c-1.119,2.236-2.124,4.47-3.132,6.817L56.983,50.95l11.956-4.582l1.342-2.123l1.898-3.017
	c1.453,2.905,3.018,5.699,4.468,8.492C74.414,53.743,72.291,57.766,70.281,61.899z"/>
<path d="M21.227,0c-4.021,0-7.373,3.352-7.373,7.374c0,4.135,3.352,7.374,7.373,7.374c4.024,0,7.375-3.239,7.375-7.374
	C28.602,3.352,25.251,0,21.227,0z"/>
<path d="M43.129,48.939c1.229-1.789,1.897-4.023,2.011-6.593c-0.336-3.017-1.452-6.369-2.458-9.498
	c-1.006-2.011-0.113,0,0.668,0.224c3.354,1.117,5.254,0,6.259-2.57c-3.13-6.928-5.812-13.743-9.051-20.559
	c-2.572,0.111-4.583,1.006-5.921,2.569l4.357,11.956c-2.572-5.921-5.924-10.056-11.509-9.946c-2.011,0-4.134,1.006-6.259,3.13
	c-0.111,0.112-0.223,0.224-0.333,0.334c-1.79,5.14-3.576,10.392-5.364,15.532L0,44.134l2.121,4.246l2.348-0.781l13.744,23.464
	L14.412,90.84l6.815,1.787l1.453,0.336l2.348-9.723l5.363,8.604l4.022-0.334l-8.271-14.75l1.676-8.268l6.594-7.932L50.168,93.52
	l2.793-2.346l2.458-2.122L43.129,48.939z M21.227,60.336l-2.009,4.247L8.042,46.034l13.074-6.593c0-0.112,0.111-0.223,0.111-0.223
	c0.782-1.229,1.564-2.347,2.235-3.464c2.458,3.017,4.134,6.145,5.028,9.162L21.227,60.336z"/>
</svg>
